<svg width="283" height="90" viewBox="0 0 283 90" fill="none" xmlns="http://www.w3.org/2000/svg">
<mask id="path-1-outside-1_131_451" maskUnits="userSpaceOnUse" x="-0.237305" y="6.16992" width="283" height="84" fill="black">
<rect fill="white" x="-0.237305" y="6.16992" width="283" height="84"/>
<path fill-rule="evenodd" clip-rule="evenodd" d="M181.17 43.8857C181.17 45.3074 181.257 46.6569 181.424 47.9362C181.257 49.0992 181.17 50.3165 181.17 51.5879C181.17 53.0094 181.257 54.3588 181.424 55.638C181.257 56.801 181.17 58.0184 181.17 59.2899C181.17 75.5336 192.522 82.3697 204.752 82.3697C216.856 82.3697 226.954 77.2269 226.954 69.2619V61.5892C226.954 61.5795 226.954 61.5697 226.954 61.5599V52.6541L226.954 52.6337V46.1849L226.954 46.1556V37.2498C226.954 36.2271 226.608 35.5004 225.949 35.1007C225.949 34.8476 225.908 34.5768 225.825 34.29C225.36 32.538 224.643 30.9714 223.707 29.5902L223.943 29.5356C225.511 29.1593 226.264 28.0931 225.825 26.5879C223.63 18.3092 215.79 14.1699 205.881 14.1699C192.522 14.1699 181.17 21.6332 181.17 36.1836C181.17 37.6051 181.257 38.9546 181.424 40.2337C181.257 41.3968 181.17 42.6142 181.17 43.8857ZM200.129 47.8828C201.234 48.5986 202.483 49.103 203.846 49.3738C203.823 49.2061 203.811 49.0282 203.811 48.8403V46.3016C202.415 46.5945 201.189 47.1398 200.129 47.8828ZM177.296 33.7926C177.541 32.6247 177.668 31.3531 177.668 29.9746C177.606 16.4277 166.568 14.2954 150.888 14.3581C146.624 14.2954 142.296 14.3581 138.031 14.6089C136.401 14.7344 135.585 15.6751 135.585 17.2431V24.9266L135.585 24.9452V40.3493V63.8924V79.2966C135.585 80.9272 136.463 81.8053 138.094 81.8053H148.38C150.01 81.8053 150.888 80.9272 150.888 79.2966V71.615C150.888 71.6082 150.888 71.6014 150.888 71.5946V70.0628C150.893 69.2567 151.332 68.8228 152.143 68.8228C152.746 68.8228 153.318 68.8067 153.882 68.7908L153.882 68.7908C154.431 68.7754 154.973 68.7601 155.529 68.7601C156.219 68.6974 156.721 69.011 157.035 69.5754L163.055 80.0492C163.745 81.2408 164.686 81.8053 166.066 81.8053H174.658C176.602 81.8053 177.355 80.4882 176.414 78.7948L173.839 74.1033H174.658C176.602 74.1033 177.355 72.7862 176.414 71.0929L173.839 66.4011H174.658C176.602 66.4011 177.355 65.084 176.414 63.3907L175.397 61.5379C176.852 59.3675 177.668 56.5659 177.668 53.0809C177.662 51.665 177.535 50.3738 177.296 49.1968C177.541 48.0289 177.668 46.7574 177.668 45.3789C177.662 43.9629 177.535 42.6716 177.296 41.4945C177.541 40.3267 177.668 39.0551 177.668 37.6767C177.662 36.2608 177.535 34.9696 177.296 33.7926ZM24.32 48.2012C27.663 48.3854 30.3873 48.4371 32.4233 48.0687C30.3222 47.7421 27.623 47.7134 24.32 47.9623C24.1184 47.9778 23.9397 48.0202 23.7851 48.0865C23.9398 48.1471 24.1184 48.1857 24.32 48.2012ZM7.76274 24.9251L7.7627 24.9452V40.3493V63.9551V79.3593C7.7627 80.9272 8.57802 81.868 10.2087 81.9307C14.4734 82.1188 18.8009 82.1188 23.0656 82.1188C36.2362 82.1188 48.3406 81.9307 48.3406 69.1991C48.3406 67.6567 48.1988 66.3453 47.9259 65.2193C48.1977 64.1162 48.3406 62.8807 48.3406 61.4972C48.3406 59.9546 48.1988 58.6431 47.9259 57.5171C48.1976 56.4139 48.3406 55.1785 48.3406 53.795C48.3406 52.2525 48.1988 50.9411 47.9259 49.8151C48.1977 48.7119 48.3406 47.4765 48.3406 46.0929C48.3406 43.9062 48.0557 42.1838 47.5162 40.7958C47.4735 39.5906 47.2869 38.5179 46.9659 37.5629C47.3173 36.3805 47.5253 35.0387 47.5253 33.5374C47.5168 32.1501 47.3258 30.9314 46.9659 29.8609C47.3173 28.6785 47.5253 27.3366 47.5253 25.8353C47.4626 15.6124 37.4906 14.5462 23.0657 14.4208C18.8009 14.3581 14.4735 14.4835 10.2087 14.6717C8.57806 14.7344 7.76274 15.6751 7.76274 17.2431V24.9251ZM87.9969 51.5492V56.1903C87.9969 56.8123 87.8691 57.3248 87.6205 57.7209C87.8691 58.1169 87.9968 58.6294 87.9968 59.2514V63.8924C87.9968 64.5144 87.8691 65.0269 87.6205 65.4229C87.8691 65.819 87.9969 66.3315 87.9969 66.9535V71.5946C87.9969 72.2166 87.8691 72.7291 87.6206 73.1251C87.8691 73.5211 87.9968 74.0336 87.9968 74.6555V79.2966C87.9968 80.9272 87.1188 81.8053 85.4881 81.8053H56.5129C54.8823 81.8053 54.0042 80.9272 54.0042 79.2966V63.8924V40.4121V25.0079L54.0043 24.9875V17.3058C54.0043 15.6751 54.8823 14.7971 56.5129 14.7971H66.7985C68.4292 14.7971 69.3072 15.6751 69.3072 17.3058V32.7101V47.7862C69.3072 48.6015 69.7462 49.0406 70.5615 49.0406H85.4882C87.1188 49.0406 87.9969 49.9186 87.9969 51.5492ZM91.1199 25.0079V40.4121V63.8924V79.2966C91.1199 80.9272 91.998 81.8053 93.6286 81.8053H126.806C128.437 81.8053 129.315 80.9272 129.315 79.2966V75.4081C129.315 74.5661 129.08 73.9248 128.629 73.5014C129.08 73.078 129.315 72.4366 129.315 71.5946V67.7061C129.315 66.864 129.08 66.2227 128.629 65.7993C129.08 65.3759 129.315 64.7345 129.315 63.8924V60.004C129.315 59.1619 129.08 58.5205 128.629 58.0972C129.08 57.6738 129.315 57.0324 129.315 56.1903V52.3018C129.315 50.6712 128.437 49.7932 126.806 49.7932H123.664C123.625 49.062 123.395 48.4976 122.985 48.1131C123.321 47.7973 123.537 47.3603 123.625 46.8092H126.806C128.437 46.8092 129.315 45.9311 129.315 44.3005V40.4121C129.315 39.57 129.08 38.9287 128.629 38.5053C129.08 38.0819 129.315 37.4406 129.315 36.5985V32.7101C129.315 31.868 129.08 31.2266 128.629 30.8032C129.08 30.3798 129.315 29.7384 129.315 28.8963V25.0079C129.315 24.1658 129.08 23.5245 128.629 23.1011C129.08 22.6777 129.315 22.0363 129.315 21.1942V17.3058C129.315 15.6751 128.437 14.7971 126.806 14.7971H93.6287C91.998 14.7971 91.12 15.6751 91.12 17.3058V24.9875L91.1199 25.0079ZM274.234 64.4026C274.608 63.2367 274.809 61.9569 274.809 60.5564C274.809 59.1243 274.606 57.8453 274.234 56.7004C274.608 55.5345 274.809 54.2547 274.809 52.8542C274.809 51.4221 274.606 50.1432 274.234 48.9983C274.608 47.8325 274.809 46.5526 274.809 45.1521C274.809 40.5549 272.716 37.5357 269.653 35.4656C269.442 35.092 269.113 34.7589 268.663 34.4661C268.45 34.3312 268.233 34.1989 268.011 34.0692C268.113 33.9101 268.205 33.7327 268.287 33.5374L269.666 30.1507C270.231 28.7082 269.917 27.5793 268.663 26.764C268.45 26.629 268.233 26.4967 268.011 26.3671C268.113 26.2079 268.205 26.0306 268.287 25.8353L269.666 22.4486C270.231 21.0061 269.917 19.8772 268.663 19.0618C256.684 11.4731 231.346 12.163 231.346 28.4067C231.346 29.885 231.522 31.2057 231.846 32.3876C231.52 33.524 231.346 34.763 231.346 36.1088C231.346 37.5872 231.522 38.908 231.846 40.0899C231.52 41.2263 231.346 42.4653 231.346 43.811C231.346 45.2892 231.522 46.61 231.846 47.7919C231.52 48.9282 231.346 50.1672 231.346 51.513C231.346 55.4555 232.596 58.2773 234.573 60.3343C234.577 61.0326 234.871 61.6723 235.548 62.1991C235.843 62.4352 236.164 62.6646 236.51 62.8867C236.481 62.9442 236.453 63.0037 236.426 63.0651L234.921 66.5772C234.357 67.8316 234.419 69.0232 235.548 69.9012C235.843 70.1374 236.164 70.3667 236.51 70.5887C236.481 70.6463 236.453 70.7057 236.426 70.7671L234.921 74.2792C234.357 75.5336 234.419 76.7252 235.548 77.6032C244.078 84.4394 274.809 85.5683 274.809 68.2584C274.809 66.8263 274.606 65.5474 274.234 64.4026Z"/>
</mask>
<path fill-rule="evenodd" clip-rule="evenodd" d="M181.17 43.8857C181.17 45.3074 181.257 46.6569 181.424 47.9362C181.257 49.0992 181.17 50.3165 181.17 51.5879C181.17 53.0094 181.257 54.3588 181.424 55.638C181.257 56.801 181.17 58.0184 181.17 59.2899C181.17 75.5336 192.522 82.3697 204.752 82.3697C216.856 82.3697 226.954 77.2269 226.954 69.2619V61.5892C226.954 61.5795 226.954 61.5697 226.954 61.5599V52.6541L226.954 52.6337V46.1849L226.954 46.1556V37.2498C226.954 36.2271 226.608 35.5004 225.949 35.1007C225.949 34.8476 225.908 34.5768 225.825 34.29C225.36 32.538 224.643 30.9714 223.707 29.5902L223.943 29.5356C225.511 29.1593 226.264 28.0931 225.825 26.5879C223.63 18.3092 215.79 14.1699 205.881 14.1699C192.522 14.1699 181.17 21.6332 181.17 36.1836C181.17 37.6051 181.257 38.9546 181.424 40.2337C181.257 41.3968 181.17 42.6142 181.17 43.8857ZM200.129 47.8828C201.234 48.5986 202.483 49.103 203.846 49.3738C203.823 49.2061 203.811 49.0282 203.811 48.8403V46.3016C202.415 46.5945 201.189 47.1398 200.129 47.8828ZM177.296 33.7926C177.541 32.6247 177.668 31.3531 177.668 29.9746C177.606 16.4277 166.568 14.2954 150.888 14.3581C146.624 14.2954 142.296 14.3581 138.031 14.6089C136.401 14.7344 135.585 15.6751 135.585 17.2431V24.9266L135.585 24.9452V40.3493V63.8924V79.2966C135.585 80.9272 136.463 81.8053 138.094 81.8053H148.38C150.01 81.8053 150.888 80.9272 150.888 79.2966V71.615C150.888 71.6082 150.888 71.6014 150.888 71.5946V70.0628C150.893 69.2567 151.332 68.8228 152.143 68.8228C152.746 68.8228 153.318 68.8067 153.882 68.7908L153.882 68.7908C154.431 68.7754 154.973 68.7601 155.529 68.7601C156.219 68.6974 156.721 69.011 157.035 69.5754L163.055 80.0492C163.745 81.2408 164.686 81.8053 166.066 81.8053H174.658C176.602 81.8053 177.355 80.4882 176.414 78.7948L173.839 74.1033H174.658C176.602 74.1033 177.355 72.7862 176.414 71.0929L173.839 66.4011H174.658C176.602 66.4011 177.355 65.084 176.414 63.3907L175.397 61.5379C176.852 59.3675 177.668 56.5659 177.668 53.0809C177.662 51.665 177.535 50.3738 177.296 49.1968C177.541 48.0289 177.668 46.7574 177.668 45.3789C177.662 43.9629 177.535 42.6716 177.296 41.4945C177.541 40.3267 177.668 39.0551 177.668 37.6767C177.662 36.2608 177.535 34.9696 177.296 33.7926ZM24.32 48.2012C27.663 48.3854 30.3873 48.4371 32.4233 48.0687C30.3222 47.7421 27.623 47.7134 24.32 47.9623C24.1184 47.9778 23.9397 48.0202 23.7851 48.0865C23.9398 48.1471 24.1184 48.1857 24.32 48.2012ZM7.76274 24.9251L7.7627 24.9452V40.3493V63.9551V79.3593C7.7627 80.9272 8.57802 81.868 10.2087 81.9307C14.4734 82.1188 18.8009 82.1188 23.0656 82.1188C36.2362 82.1188 48.3406 81.9307 48.3406 69.1991C48.3406 67.6567 48.1988 66.3453 47.9259 65.2193C48.1977 64.1162 48.3406 62.8807 48.3406 61.4972C48.3406 59.9546 48.1988 58.6431 47.9259 57.5171C48.1976 56.4139 48.3406 55.1785 48.3406 53.795C48.3406 52.2525 48.1988 50.9411 47.9259 49.8151C48.1977 48.7119 48.3406 47.4765 48.3406 46.0929C48.3406 43.9062 48.0557 42.1838 47.5162 40.7958C47.4735 39.5906 47.2869 38.5179 46.9659 37.5629C47.3173 36.3805 47.5253 35.0387 47.5253 33.5374C47.5168 32.1501 47.3258 30.9314 46.9659 29.8609C47.3173 28.6785 47.5253 27.3366 47.5253 25.8353C47.4626 15.6124 37.4906 14.5462 23.0657 14.4208C18.8009 14.3581 14.4735 14.4835 10.2087 14.6717C8.57806 14.7344 7.76274 15.6751 7.76274 17.2431V24.9251ZM87.9969 51.5492V56.1903C87.9969 56.8123 87.8691 57.3248 87.6205 57.7209C87.8691 58.1169 87.9968 58.6294 87.9968 59.2514V63.8924C87.9968 64.5144 87.8691 65.0269 87.6205 65.4229C87.8691 65.819 87.9969 66.3315 87.9969 66.9535V71.5946C87.9969 72.2166 87.8691 72.7291 87.6206 73.1251C87.8691 73.5211 87.9968 74.0336 87.9968 74.6555V79.2966C87.9968 80.9272 87.1188 81.8053 85.4881 81.8053H56.5129C54.8823 81.8053 54.0042 80.9272 54.0042 79.2966V63.8924V40.4121V25.0079L54.0043 24.9875V17.3058C54.0043 15.6751 54.8823 14.7971 56.5129 14.7971H66.7985C68.4292 14.7971 69.3072 15.6751 69.3072 17.3058V32.7101V47.7862C69.3072 48.6015 69.7462 49.0406 70.5615 49.0406H85.4882C87.1188 49.0406 87.9969 49.9186 87.9969 51.5492ZM91.1199 25.0079V40.4121V63.8924V79.2966C91.1199 80.9272 91.998 81.8053 93.6286 81.8053H126.806C128.437 81.8053 129.315 80.9272 129.315 79.2966V75.4081C129.315 74.5661 129.08 73.9248 128.629 73.5014C129.08 73.078 129.315 72.4366 129.315 71.5946V67.7061C129.315 66.864 129.08 66.2227 128.629 65.7993C129.08 65.3759 129.315 64.7345 129.315 63.8924V60.004C129.315 59.1619 129.08 58.5205 128.629 58.0972C129.08 57.6738 129.315 57.0324 129.315 56.1903V52.3018C129.315 50.6712 128.437 49.7932 126.806 49.7932H123.664C123.625 49.062 123.395 48.4976 122.985 48.1131C123.321 47.7973 123.537 47.3603 123.625 46.8092H126.806C128.437 46.8092 129.315 45.9311 129.315 44.3005V40.4121C129.315 39.57 129.08 38.9287 128.629 38.5053C129.08 38.0819 129.315 37.4406 129.315 36.5985V32.7101C129.315 31.868 129.08 31.2266 128.629 30.8032C129.08 30.3798 129.315 29.7384 129.315 28.8963V25.0079C129.315 24.1658 129.08 23.5245 128.629 23.1011C129.08 22.6777 129.315 22.0363 129.315 21.1942V17.3058C129.315 15.6751 128.437 14.7971 126.806 14.7971H93.6287C91.998 14.7971 91.12 15.6751 91.12 17.3058V24.9875L91.1199 25.0079ZM274.234 64.4026C274.608 63.2367 274.809 61.9569 274.809 60.5564C274.809 59.1243 274.606 57.8453 274.234 56.7004C274.608 55.5345 274.809 54.2547 274.809 52.8542C274.809 51.4221 274.606 50.1432 274.234 48.9983C274.608 47.8325 274.809 46.5526 274.809 45.1521C274.809 40.5549 272.716 37.5357 269.653 35.4656C269.442 35.092 269.113 34.7589 268.663 34.4661C268.45 34.3312 268.233 34.1989 268.011 34.0692C268.113 33.9101 268.205 33.7327 268.287 33.5374L269.666 30.1507C270.231 28.7082 269.917 27.5793 268.663 26.764C268.45 26.629 268.233 26.4967 268.011 26.3671C268.113 26.2079 268.205 26.0306 268.287 25.8353L269.666 22.4486C270.231 21.0061 269.917 19.8772 268.663 19.0618C256.684 11.4731 231.346 12.163 231.346 28.4067C231.346 29.885 231.522 31.2057 231.846 32.3876C231.52 33.524 231.346 34.763 231.346 36.1088C231.346 37.5872 231.522 38.908 231.846 40.0899C231.52 41.2263 231.346 42.4653 231.346 43.811C231.346 45.2892 231.522 46.61 231.846 47.7919C231.52 48.9282 231.346 50.1672 231.346 51.513C231.346 55.4555 232.596 58.2773 234.573 60.3343C234.577 61.0326 234.871 61.6723 235.548 62.1991C235.843 62.4352 236.164 62.6646 236.51 62.8867C236.481 62.9442 236.453 63.0037 236.426 63.0651L234.921 66.5772C234.357 67.8316 234.419 69.0232 235.548 69.9012C235.843 70.1374 236.164 70.3667 236.51 70.5887C236.481 70.6463 236.453 70.7057 236.426 70.7671L234.921 74.2792C234.357 75.5336 234.419 76.7252 235.548 77.6032C244.078 84.4394 274.809 85.5683 274.809 68.2584C274.809 66.8263 274.606 65.5474 274.234 64.4026Z" fill="black"/>
<path d="M181.424 47.9362L188.571 48.9633L188.712 47.9836L188.584 47.0021L181.424 47.9362ZM181.424 55.638L188.571 56.6651L188.712 55.6855L188.584 54.7041L181.424 55.638ZM226.954 61.5892L219.733 61.5667L219.733 61.578V61.5892H226.954ZM226.954 52.6541H234.174V52.646L234.174 52.6378L226.954 52.6541ZM226.954 52.6337H219.733V52.6418L219.733 52.65L226.954 52.6337ZM226.954 46.1849L219.733 46.1737V46.1849H226.954ZM226.954 46.1556L234.174 46.1668V46.1556H226.954ZM225.949 35.1007L218.728 35.0933L218.724 39.1664L222.207 41.2767L225.949 35.1007ZM225.825 34.29L218.845 36.1406L218.868 36.2265L218.893 36.3117L225.825 34.29ZM223.707 29.5902L222.083 22.5544L211.82 24.9228L217.73 33.6417L223.707 29.5902ZM223.943 29.5356L225.567 36.5714L225.598 36.5643L225.628 36.5569L223.943 29.5356ZM225.825 26.5879L218.845 28.4385L218.868 28.5244L218.893 28.6097L225.825 26.5879ZM181.424 40.2337L188.571 41.2609L188.712 40.2812L188.584 39.2998L181.424 40.2337ZM200.129 47.8828L195.986 41.969L187.211 48.1169L196.203 53.9427L200.129 47.8828ZM203.846 49.3738L202.439 56.4561L212.384 58.4317L210.999 48.3877L203.846 49.3738ZM203.811 46.3016H211.032V37.4084L202.328 39.2349L203.811 46.3016ZM177.668 29.9746H184.889V29.9579L184.889 29.9412L177.668 29.9746ZM177.296 33.7926L170.229 32.3133L169.924 33.7708L170.22 35.2301L177.296 33.7926ZM150.888 14.3581L150.782 21.578L150.85 21.579L150.917 21.5787L150.888 14.3581ZM138.031 14.6089L137.607 7.4007L137.542 7.40452L137.477 7.40951L138.031 14.6089ZM135.585 24.9266L142.806 24.9414L142.806 24.934V24.9266H135.585ZM135.585 24.9452L128.365 24.9303L128.365 24.9378V24.9452H135.585ZM150.888 71.615L143.668 71.5824L143.668 71.5987V71.615H150.888ZM150.888 70.0628L143.668 70.0167L143.668 70.0398V70.0628H150.888ZM153.882 68.7908L153.682 61.5729L153.679 61.573L153.882 68.7908ZM153.882 68.7908L154.083 76.0088L154.086 76.0087L153.882 68.7908ZM155.529 68.7601V75.9808H155.857L156.183 75.9512L155.529 68.7601ZM157.035 69.5754L150.722 73.0821L150.748 73.1283L150.774 73.1741L157.035 69.5754ZM163.055 80.0492L156.795 83.6478L156.801 83.6574L156.806 83.667L163.055 80.0492ZM176.414 78.7948L170.084 82.2693L170.093 82.2855L170.102 82.3016L176.414 78.7948ZM173.839 74.1033V66.8826H161.638L167.509 77.5778L173.839 74.1033ZM176.414 71.0929L170.084 74.5674L170.093 74.5835L170.102 74.5996L176.414 71.0929ZM173.839 66.4011V59.1804H161.638L167.509 69.8756L173.839 66.4011ZM176.414 63.3907L170.084 66.8652L170.093 66.8813L170.102 66.8974L176.414 63.3907ZM175.397 61.5379L169.399 57.5171L166.955 61.1638L169.067 65.0124L175.397 61.5379ZM177.668 53.0809H184.889V53.0641L184.889 53.0474L177.668 53.0809ZM177.296 49.1968L170.229 47.7175L169.924 49.175L170.22 50.6343L177.296 49.1968ZM177.668 45.3789H184.889V45.3622L184.889 45.3454L177.668 45.3789ZM177.296 41.4945L170.229 40.0152L169.924 41.4728L170.22 42.9321L177.296 41.4945ZM177.668 37.6767H184.889V37.66L184.889 37.6433L177.668 37.6767ZM32.4233 48.0687L33.7088 55.1741L33.5327 40.9338L32.4233 48.0687ZM24.32 48.2012L23.7662 55.4006L23.8444 55.4066L23.9226 55.4109L24.32 48.2012ZM24.32 47.9623L23.7775 40.762L23.7661 40.7629L24.32 47.9623ZM23.7851 48.0865L20.9377 41.4509L4.76656 48.3901L21.151 54.8096L23.7851 48.0865ZM7.7627 24.9452L0.542009 24.9291L0.541991 24.9371V24.9452H7.7627ZM7.76274 24.9251L14.9834 24.9412L14.9834 24.9331V24.9251H7.76274ZM10.2087 81.9307L10.5269 74.717L10.5066 74.7161L10.4862 74.7153L10.2087 81.9307ZM47.9259 65.2193L40.9148 63.4923L40.4928 65.2054L40.9084 66.9201L47.9259 65.2193ZM47.9259 57.5171L40.9148 55.7901L40.4928 57.5033L40.9084 59.218L47.9259 57.5171ZM47.9259 49.8151L40.9148 48.0881L40.4928 49.8012L40.9084 51.5159L47.9259 49.8151ZM47.5162 40.7958L40.3 41.051L40.3432 42.2727L40.7861 43.412L47.5162 40.7958ZM46.9659 37.5629L40.0444 35.5059L39.3932 37.6969L40.1215 39.8636L46.9659 37.5629ZM47.5253 33.5374H54.746V33.5152L54.7458 33.4931L47.5253 33.5374ZM46.9659 29.8609L40.0444 27.8038L39.3932 29.9948L40.1215 32.1615L46.9659 29.8609ZM47.5253 25.8353H54.746V25.8131L54.7459 25.791L47.5253 25.8353ZM23.0657 14.4208L22.9595 21.6407L22.9812 21.641L23.0029 21.6412L23.0657 14.4208ZM10.2087 14.6717L10.4862 21.887L10.5066 21.8862L10.527 21.8853L10.2087 14.6717ZM87.6205 57.7209L81.5047 53.8823L79.0956 57.7207L81.5045 61.5591L87.6205 57.7209ZM87.6205 65.4229L81.5045 61.5845L79.0954 65.4231L81.5047 69.2616L87.6205 65.4229ZM87.6206 73.1251L81.5045 69.2868L79.0958 73.125L81.5044 76.9632L87.6206 73.1251ZM54.0042 25.0079L46.7835 24.9916L46.7835 24.9998V25.0079H54.0042ZM54.0043 24.9875L61.225 25.0038L61.225 24.9956V24.9875H54.0043ZM91.1199 25.0079L83.8992 24.9916L83.8992 24.9998V25.0079H91.1199ZM128.629 73.5014L123.687 68.2371L118.08 73.5012L123.687 78.7655L128.629 73.5014ZM128.629 65.7993L123.687 60.5347L118.079 65.7994L123.688 71.0639L128.629 65.7993ZM128.629 58.0972L123.687 52.8326L118.079 58.097L123.687 63.3615L128.629 58.0972ZM123.664 49.7932L116.454 50.1769L116.817 57.0139H123.664V49.7932ZM122.985 48.1131L118.043 42.8485L112.435 48.1132L118.043 53.3778L122.985 48.1131ZM123.625 46.8092V39.5885H117.465L116.494 45.6712L123.625 46.8092ZM128.629 38.5053L123.687 33.241L118.08 38.5051L123.687 43.7694L128.629 38.5053ZM128.629 30.8032L123.687 25.5387L118.079 30.8034L123.688 36.0679L128.629 30.8032ZM128.629 23.1011L123.687 17.8365L118.079 23.1009L123.687 28.3655L128.629 23.1011ZM91.12 24.9875L98.3407 25.0038L98.3407 24.9956V24.9875H91.12ZM274.234 64.4026L267.359 62.1953L266.645 64.4169L267.367 66.6357L274.234 64.4026ZM274.234 56.7004L267.359 54.4931L266.645 56.7147L267.367 58.9336L274.234 56.7004ZM274.234 48.9983L267.359 46.7909L266.645 49.0125L267.367 51.2314L274.234 48.9983ZM269.653 35.4656L263.364 39.0132L264.2 40.4951L265.61 41.4479L269.653 35.4656ZM268.663 34.4661L272.598 28.412L272.563 28.389L272.527 28.3664L268.663 34.4661ZM268.011 34.0692L261.929 30.1772L257.882 36.5021L264.36 40.2989L268.011 34.0692ZM268.287 33.5374L274.952 36.3139L274.963 36.2879L274.974 36.2617L268.287 33.5374ZM269.666 30.1507L276.353 32.875L276.372 32.8286L276.391 32.7819L269.666 30.1507ZM268.663 26.764L272.598 20.7098L272.563 20.6868L272.527 20.6643L268.663 26.764ZM268.011 26.3671L261.929 22.4757L257.883 28.8003L264.36 32.5967L268.011 26.3671ZM268.287 25.8353L274.952 28.6129L274.963 28.5863L274.974 28.5596L268.287 25.8353ZM269.666 22.4486L276.353 25.1729L276.372 25.1265L276.391 25.0798L269.666 22.4486ZM268.663 19.0618L272.598 13.0077L272.563 12.9847L272.527 12.9621L268.663 19.0618ZM231.846 32.3876L238.787 34.3777L239.345 32.4316L238.81 30.479L231.846 32.3876ZM231.846 40.0899L238.787 42.08L239.345 40.1338L238.81 38.1812L231.846 40.0899ZM231.846 47.7919L238.787 49.782L239.345 47.8359L238.81 45.8833L231.846 47.7919ZM234.573 60.3343L241.793 60.2871L241.775 57.4077L239.78 55.3314L234.573 60.3343ZM235.548 62.1991L240.064 56.5647L240.023 56.5317L239.981 56.4994L235.548 62.1991ZM236.51 62.8867L242.978 66.0951L245.85 60.3057L240.413 56.8121L236.51 62.8867ZM236.426 63.0651L229.817 60.1576L229.803 60.1891L229.789 60.2207L236.426 63.0651ZM234.921 66.5772L241.506 69.5404L241.533 69.4812L241.558 69.4216L234.921 66.5772ZM235.548 69.9012L240.064 64.2669L240.023 64.2339L239.981 64.2016L235.548 69.9012ZM236.51 70.5887L242.979 73.796L245.849 68.0073L240.413 64.5143L236.51 70.5887ZM236.426 70.7671L229.817 67.8595L229.803 67.891L229.789 67.9227L236.426 70.7671ZM234.921 74.2792L241.506 77.2423L241.532 77.1832L241.558 77.1236L234.921 74.2792ZM235.548 77.6032L240.064 71.9688L240.023 71.9359L239.981 71.9035L235.548 77.6032ZM188.584 47.0021C188.46 46.0499 188.391 45.013 188.391 43.8857H173.95C173.95 45.6017 174.054 47.2639 174.264 48.8703L188.584 47.0021ZM188.391 51.5879C188.391 50.645 188.455 49.7714 188.571 48.9633L174.277 46.9091C174.059 48.4269 173.95 49.9879 173.95 51.5879H188.391ZM188.584 54.7041C188.46 53.7518 188.391 52.715 188.391 51.5879H173.95C173.95 53.3038 174.055 54.9658 174.264 56.5719L188.584 54.7041ZM188.391 59.2899C188.391 58.3469 188.455 57.4733 188.571 56.6651L174.277 54.6108C174.059 56.1287 173.95 57.6898 173.95 59.2899H188.391ZM204.752 75.149C199.891 75.149 195.813 73.7846 193.072 71.4367C190.51 69.2427 188.391 65.5852 188.391 59.2899H173.95C173.95 69.2382 177.507 77.1206 183.678 82.4056C189.67 87.5368 197.383 89.5904 204.752 89.5904V75.149ZM219.733 69.2619C219.733 69.7311 219.532 70.9947 216.84 72.5162C214.147 74.0378 209.898 75.149 204.752 75.149V89.5904C211.71 89.5904 218.562 88.1302 223.944 85.0892C229.326 82.048 234.174 76.7577 234.174 69.2619H219.733ZM219.733 61.5892V69.2619H234.174V61.5892H219.733ZM219.733 61.5599C219.733 61.5622 219.733 61.5644 219.733 61.5667L234.174 61.6118C234.174 61.5945 234.174 61.5772 234.174 61.5599H219.733ZM219.733 52.6541V61.5599H234.174V52.6541H219.733ZM219.733 52.65L219.733 52.6703L234.174 52.6378L234.174 52.6175L219.733 52.65ZM219.733 46.1849V52.6337H234.174V46.1849H219.733ZM219.733 46.1443L219.733 46.1737L234.174 46.1962L234.174 46.1668L219.733 46.1443ZM219.733 37.2498V46.1556H234.174V37.2498H219.733ZM222.207 41.2767C221.284 40.7174 220.581 39.9014 220.163 39.0111C219.777 38.189 219.733 37.5245 219.733 37.2498H234.174C234.174 34.5723 233.162 31.0284 229.69 28.9248L222.207 41.2767ZM218.893 36.3117C218.81 36.0284 218.727 35.6139 218.728 35.0933L233.169 35.1081C233.17 34.0813 233.007 33.1251 232.757 32.2683L218.893 36.3117ZM217.73 33.6417C218.197 34.3306 218.582 35.1494 218.845 36.1406L232.804 32.4394C232.138 29.9266 231.089 27.6122 229.684 25.5387L217.73 33.6417ZM222.32 22.4998L222.083 22.5544L225.33 36.626L225.567 36.5714L222.32 22.4998ZM218.893 28.6097C218.657 27.8012 218.526 26.1597 219.6 24.5234C220.581 23.0286 221.873 22.6066 222.258 22.5143L225.628 36.5569C227.581 36.0883 230.034 34.945 231.673 32.4467C233.406 29.8069 233.431 26.8797 232.757 24.5661L218.893 28.6097ZM205.881 21.3906C214.06 21.3906 217.829 24.6055 218.845 28.4385L232.804 24.7373C229.43 12.0129 217.52 6.94922 205.881 6.94922V21.3906ZM188.391 36.1836C188.391 30.9822 190.327 27.5664 193.086 25.3111C196.023 22.9101 200.464 21.3906 205.881 21.3906V6.94922C197.939 6.94922 190.024 9.16142 183.946 14.1297C177.69 19.2436 173.95 26.8347 173.95 36.1836H188.391ZM188.584 39.2998C188.46 38.3476 188.391 37.3108 188.391 36.1836H173.95C173.95 37.8994 174.055 39.5615 174.264 41.1677L188.584 39.2998ZM188.391 43.8857C188.391 42.9427 188.455 42.0691 188.571 41.2609L174.277 39.2066C174.059 40.7245 173.95 42.2856 173.95 43.8857H188.391ZM196.203 53.9427C198.103 55.174 200.212 56.0137 202.439 56.4561L205.253 42.2915C204.753 42.1922 204.364 42.0231 204.055 41.8228L196.203 53.9427ZM210.999 48.3877C211.025 48.5776 211.032 48.7311 211.032 48.8403H196.59C196.59 49.3253 196.62 49.8345 196.693 50.3599L210.999 48.3877ZM211.032 48.8403V46.3016H196.59V48.8403H211.032ZM202.328 39.2349C199.979 39.7279 197.847 40.6647 195.986 41.969L204.272 53.7965C204.531 53.6148 204.852 53.4611 205.294 53.3684L202.328 39.2349ZM170.448 29.9746C170.448 30.9082 170.361 31.6804 170.229 32.3133L184.364 35.2719C184.72 33.5689 184.889 31.798 184.889 29.9746H170.448ZM150.917 21.5787C158.803 21.5472 163.97 22.1461 167.067 23.5994C168.403 24.2263 169.086 24.898 169.505 25.582C169.946 26.3015 170.437 27.6 170.448 30.008L184.889 29.9412C184.869 25.5757 183.957 21.5277 181.82 18.0392C179.662 14.5153 176.594 12.1178 173.202 10.5261C166.844 7.54214 158.653 7.10626 150.859 7.13743L150.917 21.5787ZM138.455 21.8172C142.509 21.5787 146.656 21.5173 150.782 21.578L150.994 7.13815C146.591 7.0734 142.083 7.13742 137.607 7.4007L138.455 21.8172ZM142.806 17.2431C142.806 17.678 142.679 18.9932 141.531 20.2516C140.367 21.5276 139.041 21.7733 138.585 21.8084L137.477 7.40951C135.391 7.57003 132.842 8.34882 130.862 10.5186C128.899 12.6706 128.365 15.2402 128.365 17.2431H142.806ZM142.806 24.9266V17.2431H128.365V24.9266H142.806ZM142.806 24.96L142.806 24.9414L128.365 24.9118L128.365 24.9303L142.806 24.96ZM142.806 40.3493V24.9452H128.365V40.3493H142.806ZM128.365 40.3493V63.8924H142.806V40.3493H128.365ZM128.365 63.8924V79.2966H142.806V63.8924H128.365ZM128.365 79.2966C128.365 81.3607 128.937 84.083 131.122 86.2682C133.308 88.4535 136.03 89.026 138.094 89.026V74.5846C138.527 74.5846 139.995 74.718 141.334 76.0566C142.673 77.3952 142.806 78.8631 142.806 79.2966H128.365ZM138.094 89.026H148.38V74.5846H138.094V89.026ZM148.38 89.026C150.444 89.026 153.166 88.4535 155.351 86.2682C157.536 84.083 158.109 81.3607 158.109 79.2966H143.668C143.668 78.8631 143.801 77.3952 145.14 76.0566C146.478 74.718 147.946 74.5846 148.38 74.5846V89.026ZM158.109 79.2966V71.615H143.668V79.2966H158.109ZM143.668 71.5946C143.668 71.5906 143.668 71.5865 143.668 71.5824L158.109 71.6475C158.109 71.6298 158.109 71.6122 158.109 71.5946H143.668ZM143.668 70.0628V71.5946H158.109V70.0628H143.668ZM158.109 70.1089C158.103 70.9657 157.842 72.7407 156.29 74.2752C154.744 75.8042 152.978 76.0435 152.143 76.0435V61.6021C150.497 61.6021 148.106 62.0585 146.137 64.0058C144.161 65.9589 143.678 68.3538 143.668 70.0167L158.109 70.1089ZM152.143 76.0435C152.864 76.0435 153.534 76.0242 154.085 76.0087L153.679 61.573C153.102 61.5892 152.629 61.6021 152.143 61.6021V76.0435ZM154.083 76.0088L154.083 76.0088L153.682 61.5729L153.682 61.5729L154.083 76.0088ZM154.086 76.0087C154.65 75.9928 155.091 75.9808 155.529 75.9808V61.5394C154.855 61.5394 154.213 61.558 153.679 61.573L154.086 76.0087ZM156.183 75.9512C155.236 76.0373 154.044 75.879 152.883 75.226C151.759 74.5935 151.085 73.7353 150.722 73.0821L163.347 66.0688C162.67 64.8511 161.589 63.5539 159.963 62.6392C158.3 61.704 156.512 61.4203 154.876 61.5691L156.183 75.9512ZM150.774 73.1741L156.795 83.6478L169.315 76.4506L163.295 65.9768L150.774 73.1741ZM156.806 83.667C157.623 85.078 158.841 86.5411 160.645 87.6004C162.461 88.6669 164.363 89.026 166.066 89.026V74.5846C166.389 74.5846 167.13 74.6614 167.959 75.1478C168.774 75.627 169.177 76.2119 169.304 76.4314L156.806 83.667ZM166.066 89.026H174.658V74.5846H166.066V89.026ZM174.658 89.026C177.059 89.026 180.773 88.1652 182.865 84.5565C184.939 80.9791 183.874 77.3547 182.726 75.2881L170.102 82.3016C169.895 81.9284 168.924 79.8092 170.371 77.3137C171.836 74.7868 174.201 74.5846 174.658 74.5846V89.026ZM182.744 75.3203L180.169 70.6288L167.509 77.5778L170.084 82.2693L182.744 75.3203ZM174.658 66.8826H173.839V81.324H174.658V66.8826ZM170.102 74.5996C169.895 74.2264 168.924 72.1072 170.371 69.6117C171.836 67.0848 174.201 66.8826 174.658 66.8826V81.324C177.059 81.324 180.773 80.4632 182.865 76.8545C184.939 73.2771 183.874 69.6527 182.726 67.5861L170.102 74.5996ZM167.509 69.8756L170.084 74.5674L182.744 67.6183L180.169 62.9266L167.509 69.8756ZM174.658 59.1804H173.839V73.6218H174.658V59.1804ZM170.102 66.8974C169.895 66.5242 168.924 64.405 170.371 61.9095C171.836 59.3826 174.201 59.1804 174.658 59.1804V73.6218C177.059 73.6218 180.773 72.761 182.865 69.1523C184.939 65.5749 183.874 61.9505 182.726 59.884L170.102 66.8974ZM169.067 65.0124L170.084 66.8652L182.744 59.9162L181.727 58.0634L169.067 65.0124ZM181.395 65.5587C183.795 61.9786 184.889 57.7072 184.889 53.0809H170.448C170.448 55.4246 169.909 56.7564 169.399 57.5171L181.395 65.5587ZM184.889 53.0474C184.881 51.2248 184.718 49.458 184.372 47.7593L170.22 50.6343C170.353 51.2897 170.443 52.1053 170.448 53.1143L184.889 53.0474ZM170.448 45.3789C170.448 46.3125 170.361 47.0847 170.229 47.7175L184.364 50.6761C184.72 48.9732 184.889 47.2022 184.889 45.3789H170.448ZM170.22 42.9321C170.353 43.5875 170.443 44.4032 170.448 45.4124L184.889 45.3454C184.881 43.5226 184.718 41.7557 184.372 40.0569L170.22 42.9321ZM170.448 37.6767C170.448 38.6103 170.361 39.3825 170.229 40.0152L184.364 42.9738C184.72 41.2708 184.889 39.4999 184.889 37.6767H170.448ZM170.22 35.2301C170.353 35.8855 170.443 36.701 170.448 37.7102L184.889 37.6433C184.881 35.8206 184.718 34.0537 184.372 32.355L170.22 35.2301ZM31.1379 40.9634C30.0559 41.1591 28.1468 41.1804 24.7174 40.9914L23.9226 55.4109C27.1792 55.5904 30.7186 55.7151 33.7088 55.1741L31.1379 40.9634ZM24.8625 55.1626C27.906 54.9333 29.9875 54.9975 31.3139 55.2037L33.5327 40.9338C30.6569 40.4866 27.3401 40.4936 23.7775 40.762L24.8625 55.1626ZM26.6325 54.7221C25.9575 55.0117 25.3447 55.1255 24.8738 55.1617L23.7661 40.7629C22.8921 40.8301 21.9219 41.0286 20.9377 41.4509L26.6325 54.7221ZM24.8738 41.0017C25.2469 41.0304 25.7899 41.1168 26.4192 41.3634L21.151 54.8096C22.0897 55.1774 22.9898 55.3409 23.7662 55.4006L24.8738 41.0017ZM14.9834 24.9613L14.9834 24.9412L0.542054 24.909L0.542009 24.9291L14.9834 24.9613ZM14.9834 40.3493V24.9452H0.541991V40.3493H14.9834ZM0.541991 40.3493V63.9551H14.9834V40.3493H0.541991ZM0.541991 63.9551V79.3593H14.9834V63.9551H0.541991ZM0.541991 79.3593C0.541991 81.3428 1.06778 83.9526 3.08289 86.1228C5.13734 88.3353 7.78244 89.0634 9.93112 89.1461L10.4862 74.7153C11.0042 74.7353 12.4264 74.9617 13.6655 76.2961C14.8653 77.5882 14.9834 78.9437 14.9834 79.3593H0.541991ZM9.89041 89.1444C14.3411 89.3407 18.8285 89.3395 23.0656 89.3395V74.8981C18.7733 74.8981 14.6058 74.897 10.5269 74.717L9.89041 89.1444ZM23.0656 89.3395C29.2605 89.3395 36.9561 89.3777 43.0315 87.2472C46.2935 86.1033 49.6034 84.1808 52.0437 80.8896C54.5088 77.5651 55.5613 73.5533 55.5613 69.1991H41.1199C41.1199 71.2107 40.6594 71.9968 40.4432 72.2883C40.2024 72.6131 39.6631 73.1248 38.2526 73.6194C34.9832 74.7659 30.0413 74.8981 23.0656 74.8981V89.3395ZM55.5613 69.1991C55.5613 67.2287 55.3817 65.3266 54.9435 63.5186L40.9084 66.9201C41.016 67.3641 41.1199 68.0847 41.1199 69.1991H55.5613ZM41.1199 61.4972C41.1199 62.3866 41.0278 63.0337 40.9148 63.4923L54.9371 66.9464C55.3676 65.1987 55.5613 63.3749 55.5613 61.4972H41.1199ZM40.9084 59.218C41.016 59.662 41.1199 60.3827 41.1199 61.4972H55.5613C55.5613 59.5265 55.3817 57.6243 54.9434 55.8162L40.9084 59.218ZM41.1199 53.795C41.1199 54.6844 41.0277 55.3315 40.9148 55.7901L54.9371 59.244C55.3675 57.4964 55.5613 55.6726 55.5613 53.795H41.1199ZM40.9084 51.5159C41.016 51.9599 41.1199 52.6806 41.1199 53.795H55.5613C55.5613 51.8245 55.3817 49.9223 54.9435 48.1143L40.9084 51.5159ZM41.1199 46.0929C41.1199 46.9823 41.0278 47.6294 40.9148 48.0881L54.937 51.5422C55.3676 49.7944 55.5613 47.9706 55.5613 46.0929H41.1199ZM40.7861 43.412C40.9075 43.7244 41.1199 44.4993 41.1199 46.0929H55.5613C55.5613 43.313 55.2039 40.6431 54.2463 38.1796L40.7861 43.412ZM40.1215 39.8636C40.1898 40.0666 40.2783 40.4383 40.3 41.051L54.7324 40.5406C54.6688 38.743 54.384 36.9691 53.8103 35.2622L40.1215 39.8636ZM40.3046 33.5374C40.3046 34.3661 40.1907 35.0137 40.0444 35.5059L53.8874 39.6199C54.4439 37.7473 54.746 35.7113 54.746 33.5374H40.3046ZM40.1215 32.1615C40.1978 32.3886 40.3001 32.8288 40.3047 33.5817L54.7458 33.4931C54.7334 31.4714 54.4537 29.4743 53.8103 27.5603L40.1215 32.1615ZM40.3046 25.8353C40.3046 26.664 40.1907 27.3116 40.0444 27.8038L53.8874 31.918C54.444 30.0453 54.746 28.0092 54.746 25.8353H40.3046ZM23.0029 21.6412C30.4317 21.7058 35.2714 22.061 38.2206 23.13C39.5105 23.5975 39.873 24.0156 39.955 24.1235C39.9912 24.1712 40.2965 24.5428 40.3047 25.8796L54.7459 25.791C54.7227 22.0163 53.7581 18.4211 51.4561 15.3897C49.1999 12.4186 46.1561 10.6456 43.142 9.553C37.4833 7.50187 30.1246 7.26119 23.1285 7.20036L23.0029 21.6412ZM10.527 21.8853C14.7281 21.7 18.8971 21.581 22.9595 21.6407L23.1719 7.20087C18.7047 7.13517 14.2188 7.26701 9.89045 7.45797L10.527 21.8853ZM14.9834 17.2431C14.9834 17.6586 14.8653 19.0141 13.6655 20.3062C12.4264 21.6407 11.0043 21.8671 10.4862 21.887L9.93119 7.45629C7.78251 7.53893 5.1374 8.26708 3.08295 10.4796C1.06782 12.6497 0.542036 15.2596 0.542036 17.2431H14.9834ZM14.9834 24.9251V17.2431H0.542036V24.9251H14.9834ZM95.2176 56.1903V51.5492H80.7762V56.1903H95.2176ZM93.7364 61.5594C94.8975 59.7096 95.2176 57.7606 95.2176 56.1903H80.7762C80.7762 55.864 80.8408 54.9401 81.5047 53.8823L93.7364 61.5594ZM95.2175 59.2514C95.2175 57.6811 94.8975 55.7323 93.7366 53.8826L81.5045 61.5591C80.8407 60.5014 80.7761 59.5776 80.7761 59.2514H95.2175ZM95.2175 63.8924V59.2514H80.7761V63.8924H95.2175ZM93.7365 69.2614C94.8974 67.4116 95.2175 65.4627 95.2175 63.8924H80.7761C80.7761 63.5662 80.8407 62.6423 81.5045 61.5845L93.7365 69.2614ZM95.2176 66.9535C95.2176 65.3832 94.8974 63.4342 93.7363 61.5843L81.5047 69.2616C80.8408 68.2038 80.7762 67.2798 80.7762 66.9535H95.2176ZM95.2176 71.5946V66.9535H80.7762V71.5946H95.2176ZM93.7366 76.9634C94.8975 75.1137 95.2176 73.1649 95.2176 71.5946H80.7762C80.7762 71.2683 80.8408 70.3445 81.5045 69.2868L93.7366 76.9634ZM95.2175 74.6555C95.2175 73.0854 94.8975 71.1367 93.7368 69.287L81.5044 76.9632C80.8407 75.9055 80.7761 74.9818 80.7761 74.6555H95.2175ZM95.2175 79.2966V74.6555H80.7761V79.2966H95.2175ZM85.4881 89.026C87.5523 89.026 90.2745 88.4535 92.4598 86.2682C94.645 84.083 95.2175 81.3607 95.2175 79.2966H80.7761C80.7761 78.8631 80.9096 77.3952 82.2482 76.0566C83.5867 74.718 85.0546 74.5846 85.4881 74.5846V89.026ZM56.5129 89.026H85.4881V74.5846H56.5129V89.026ZM46.7835 79.2966C46.7835 81.3607 47.356 84.083 49.5413 86.2682C51.7265 88.4535 54.4488 89.026 56.5129 89.026V74.5846C56.9464 74.5846 58.4143 74.718 59.7529 76.0566C61.0915 77.3952 61.2249 78.8631 61.2249 79.2966H46.7835ZM46.7835 63.8924V79.2966H61.2249V63.8924H46.7835ZM46.7835 40.4121V63.8924H61.2249V40.4121H46.7835ZM46.7835 25.0079V40.4121H61.2249V25.0079H46.7835ZM46.7836 24.9713L46.7835 24.9916L61.2249 25.0241L61.225 25.0038L46.7836 24.9713ZM46.7836 17.3058V24.9875H61.225V17.3058H46.7836ZM56.5129 7.57639C54.4488 7.57639 51.7266 8.14888 49.5413 10.3341C47.356 12.5194 46.7836 15.2416 46.7836 17.3058H61.225C61.225 17.7393 61.0915 19.2072 59.7529 20.5457C58.4144 21.8843 56.9464 22.0178 56.5129 22.0178V7.57639ZM66.7985 7.57639H56.5129V22.0178H66.7985V7.57639ZM76.5279 17.3058C76.5279 15.2416 75.9554 12.5194 73.7702 10.3341C71.5849 8.14887 68.8627 7.57639 66.7985 7.57639V22.0178C66.365 22.0178 64.8971 21.8843 63.5585 20.5457C62.22 19.2072 62.0865 17.7393 62.0865 17.3058H76.5279ZM76.5279 32.7101V17.3058H62.0865V32.7101H76.5279ZM76.5279 47.7862V32.7101H62.0865V47.7862H76.5279ZM70.5615 41.8199C71.4027 41.8199 73.1842 42.0631 74.7344 43.6133C76.2847 45.1636 76.5279 46.9451 76.5279 47.7862H62.0865C62.0865 49.4427 62.5492 51.8514 64.5228 53.825C66.4964 55.7985 68.9051 56.2613 70.5615 56.2613V41.8199ZM85.4882 41.8199H70.5615V56.2613H85.4882V41.8199ZM95.2176 51.5492C95.2176 49.4851 94.6451 46.7628 92.4598 44.5776C90.2746 42.3923 87.5523 41.8199 85.4882 41.8199V56.2613C85.0547 56.2613 83.5868 56.1278 82.2482 54.7892C80.9096 53.4507 80.7762 51.9828 80.7762 51.5492H95.2176ZM98.3406 40.4121V25.0079H83.8992V40.4121H98.3406ZM98.3406 63.8924V40.4121H83.8992V63.8924H98.3406ZM98.3406 79.2966V63.8924H83.8992V79.2966H98.3406ZM93.6286 74.5846C94.0621 74.5846 95.53 74.718 96.8686 76.0566C98.2072 77.3952 98.3406 78.8631 98.3406 79.2966H83.8992C83.8992 81.3607 84.4717 84.083 86.657 86.2682C88.8422 88.4535 91.5645 89.026 93.6286 89.026V74.5846ZM126.806 74.5846H93.6286V89.026H126.806V74.5846ZM122.094 79.2966C122.094 78.8631 122.227 77.3952 123.566 76.0566C124.904 74.718 126.372 74.5846 126.806 74.5846V89.026C128.87 89.026 131.592 88.4535 133.778 86.2682C135.963 84.083 136.535 81.3607 136.535 79.2966H122.094ZM122.094 75.4081V79.2966H136.535V75.4081H122.094ZM123.687 78.7655C122.243 77.4095 122.094 75.8606 122.094 75.4081H136.535C136.535 73.2716 135.918 70.44 133.572 68.2372L123.687 78.7655ZM122.094 71.5946C122.094 71.1421 122.243 69.5931 123.687 68.2371L133.572 78.7657C135.918 76.5629 136.535 73.7312 136.535 71.5946H122.094ZM122.094 67.7061V71.5946H136.535V67.7061H122.094ZM123.688 71.0639C122.243 69.7079 122.094 68.1587 122.094 67.7061H136.535C136.535 65.5693 135.918 62.7374 133.571 60.5346L123.688 71.0639ZM122.094 63.8924C122.094 63.4399 122.243 61.8908 123.687 60.5347L133.571 71.0638C135.918 68.8609 136.535 66.029 136.535 63.8924H122.094ZM122.094 60.004V63.8924H136.535V60.004H122.094ZM123.687 63.3615C122.243 62.0055 122.094 60.4565 122.094 60.004H136.535C136.535 57.8673 135.918 55.0356 133.572 52.8328L123.687 63.3615ZM122.094 56.1903C122.094 55.7378 122.243 54.1886 123.687 52.8326L133.571 63.3617C135.918 61.1589 136.535 58.327 136.535 56.1903H122.094ZM122.094 52.3018V56.1903H136.535V52.3018H122.094ZM126.806 57.0139C126.372 57.0139 124.905 56.8804 123.566 55.5418C122.227 54.2033 122.094 52.7353 122.094 52.3018H136.535C136.535 50.2377 135.963 47.5155 133.778 45.3302C131.592 43.1449 128.87 42.5725 126.806 42.5725V57.0139ZM123.664 57.0139H126.806V42.5725H123.664V57.0139ZM118.043 53.3778C116.742 52.1565 116.484 50.7557 116.454 50.1769L130.875 49.4095C130.766 47.3682 130.047 44.8387 127.927 42.8484L118.043 53.3778ZM116.494 45.6712C116.607 44.9648 116.995 43.8321 118.043 42.8485L127.927 53.3776C129.647 51.7625 130.467 49.7558 130.755 47.9472L116.494 45.6712ZM126.806 39.5885H123.625V54.0299H126.806V39.5885ZM122.094 44.3005C122.094 43.867 122.227 42.3991 123.566 41.0605C124.904 39.722 126.372 39.5885 126.806 39.5885V54.0299C128.87 54.0299 131.592 53.4574 133.778 51.2721C135.963 49.0869 136.535 46.3646 136.535 44.3005H122.094ZM122.094 40.4121V44.3005H136.535V40.4121H122.094ZM123.687 43.7694C122.243 42.4134 122.094 40.8646 122.094 40.4121H136.535C136.535 38.2755 135.918 35.444 133.572 33.2412L123.687 43.7694ZM122.094 36.5985C122.094 36.146 122.243 34.597 123.687 33.241L133.572 43.7696C135.918 41.5668 136.535 38.7351 136.535 36.5985H122.094ZM122.094 32.7101V36.5985H136.535V32.7101H122.094ZM123.688 36.0679C122.243 34.7118 122.094 33.1626 122.094 32.7101H136.535C136.535 30.5733 135.918 27.7413 133.571 25.5385L123.688 36.0679ZM122.094 28.8963C122.094 28.4438 122.243 26.8947 123.687 25.5387L133.571 36.0677C135.918 33.8649 136.535 31.033 136.535 28.8963H122.094ZM122.094 25.0079V28.8963H136.535V25.0079H122.094ZM123.687 28.3655C122.243 27.0094 122.094 25.4604 122.094 25.0079H136.535C136.535 22.8713 135.918 20.0395 133.572 17.8367L123.687 28.3655ZM122.094 21.1942C122.094 20.7417 122.243 19.1926 123.687 17.8365L133.571 28.3656C135.918 26.1628 136.535 23.3309 136.535 21.1942H122.094ZM122.094 17.3058V21.1942H136.535V17.3058H122.094ZM126.806 22.0178C126.372 22.0178 124.905 21.8843 123.566 20.5457C122.227 19.2072 122.094 17.7393 122.094 17.3058H136.535C136.535 15.2416 135.963 12.5194 133.778 10.3341C131.592 8.14887 128.87 7.57639 126.806 7.57639V22.0178ZM93.6287 22.0178H126.806V7.57639H93.6287V22.0178ZM98.3407 17.3058C98.3407 17.7393 98.2072 19.2072 96.8686 20.5457C95.5301 21.8843 94.0621 22.0178 93.6287 22.0178V7.57639C91.5645 7.57639 88.8423 8.14887 86.657 10.3341C84.4718 12.5194 83.8993 15.2416 83.8993 17.3058H98.3407ZM98.3407 24.9875V17.3058H83.8993V24.9875H98.3407ZM98.3406 25.0241L98.3407 25.0038L83.8993 24.9713L83.8992 24.9916L98.3406 25.0241ZM281.109 66.6098C281.727 64.6853 282.03 62.657 282.03 60.5564H267.588C267.588 61.2568 267.489 61.7881 267.359 62.1953L281.109 66.6098ZM282.03 60.5564C282.03 58.4329 281.727 56.3943 281.1 54.4672L267.367 58.9336C267.485 59.2962 267.588 59.8157 267.588 60.5564H282.03ZM281.109 58.9076C281.727 56.9831 282.03 54.9548 282.03 52.8542H267.588C267.588 53.5546 267.489 54.0859 267.359 54.4931L281.109 58.9076ZM282.03 52.8542C282.03 50.7307 281.727 48.6922 281.1 46.7652L267.367 51.2314C267.485 51.5941 267.588 52.1136 267.588 52.8542H282.03ZM281.109 51.2057C281.727 49.2811 282.03 47.2527 282.03 45.1521H267.588C267.588 45.8525 267.489 46.3838 267.359 46.7909L281.109 51.2057ZM282.03 45.1521C282.03 37.8362 278.465 32.706 273.697 29.4832L265.61 41.4479C266.421 41.9965 266.857 42.5005 267.108 42.9396C267.34 43.347 267.588 43.9997 267.588 45.1521H282.03ZM275.942 31.918C275.039 30.3163 273.793 29.1885 272.598 28.412L264.728 40.5203C264.434 40.3292 263.846 39.8677 263.364 39.0132L275.942 31.918ZM272.527 28.3664C272.242 28.1859 271.954 28.0103 271.662 27.8395L264.36 40.2989C264.512 40.3875 264.658 40.4765 264.799 40.5659L272.527 28.3664ZM274.093 37.9613C274.444 37.4137 274.726 36.8578 274.952 36.3139L261.621 30.7608C261.685 30.6076 261.783 30.4065 261.929 30.1772L274.093 37.9613ZM274.974 36.2617L276.353 32.875L262.979 27.4263L261.6 30.8131L274.974 36.2617ZM276.391 32.7819C277.057 31.0794 277.521 28.7454 276.779 26.2004C276.016 23.586 274.293 21.8113 272.598 20.7098L264.728 32.8181C264.287 32.5319 263.348 31.7294 262.915 30.2439C262.502 28.8278 262.84 27.7795 262.942 27.5195L276.391 32.7819ZM272.527 20.6643C272.242 20.4837 271.954 20.3081 271.663 20.1374L264.36 32.5967C264.512 32.6853 264.658 32.7743 264.799 32.8636L272.527 20.6643ZM274.094 30.2584C274.444 29.7108 274.726 29.1555 274.952 28.6129L261.621 23.0577C261.685 22.9057 261.782 22.7051 261.929 22.4757L274.094 30.2584ZM274.974 28.5596L276.353 25.1729L262.979 19.7242L261.6 23.111L274.974 28.5596ZM276.391 25.0798C277.057 23.3773 277.521 21.0433 276.779 18.4983C276.016 15.8839 274.293 14.1092 272.598 13.0077L264.728 25.116C264.287 24.8298 263.348 24.0272 262.915 22.5418C262.502 21.1257 262.84 20.0774 262.942 19.8173L276.391 25.0798ZM272.527 12.9621C264.876 8.11525 253.726 6.16889 244.371 7.66725C239.61 8.42964 234.651 10.1861 230.752 13.5799C226.641 17.1576 224.126 22.2206 224.126 28.4067H238.567C238.567 26.4709 239.218 25.3563 240.233 24.4732C241.459 23.4063 243.583 22.4189 246.654 21.9269C252.963 20.9166 260.471 22.4197 264.799 25.1616L272.527 12.9621ZM224.126 28.4067C224.126 30.4597 224.37 32.4283 224.882 34.2962L238.81 30.479C238.674 29.9831 238.567 29.3102 238.567 28.4067H224.126ZM224.905 30.3975C224.381 32.2235 224.126 34.1356 224.126 36.1088H238.567C238.567 35.3905 238.659 34.8245 238.787 34.3777L224.905 30.3975ZM224.126 36.1088C224.126 38.162 224.37 40.1307 224.882 41.9986L238.81 38.1812C238.674 37.6853 238.567 37.0123 238.567 36.1088H224.126ZM224.905 38.0999C224.381 39.9258 224.126 41.8378 224.126 43.811H238.567C238.567 43.0927 238.659 42.5267 238.787 42.08L224.905 38.0999ZM224.126 43.811C224.126 45.864 224.37 47.8325 224.882 49.7004L238.81 45.8833C238.674 45.3874 238.567 44.7145 238.567 43.811H224.126ZM224.905 45.8017C224.381 47.6278 224.126 49.5398 224.126 51.513H238.567C238.567 50.7946 238.659 50.2287 238.787 49.782L224.905 45.8017ZM224.126 51.513C224.126 57.1552 225.987 61.8205 229.366 65.3371L239.78 55.3314C239.427 54.9641 239.157 54.5556 238.958 54.0392C238.755 53.5107 238.567 52.7119 238.567 51.513H224.126ZM227.352 60.3814C227.372 63.4059 228.785 66.086 231.115 67.8987L239.981 56.4994C240.374 56.805 240.868 57.3142 241.249 58.0675C241.636 58.8297 241.789 59.6091 241.793 60.2871L227.352 60.3814ZM231.032 67.8334C231.543 68.2429 232.072 68.6178 232.606 68.9612L240.413 56.8121C240.257 56.7115 240.143 56.6276 240.064 56.5647L231.032 67.8334ZM230.041 59.6782C229.961 59.8386 229.887 59.9986 229.817 60.1576L243.036 65.9725C243.02 66.0088 243.001 66.0498 242.978 66.0951L230.041 59.6782ZM229.789 60.2207L228.284 63.7329L241.558 69.4216L243.063 65.9094L229.789 60.2207ZM228.336 63.6141C227.694 65.0426 227.099 67.0979 227.462 69.4709C227.855 72.0431 229.245 74.1463 231.115 75.6009L239.981 64.2016C240.723 64.7781 241.517 65.8465 241.738 67.2899C241.928 68.5339 241.584 69.3662 241.506 69.5404L228.336 63.6141ZM231.033 75.5356C231.543 75.945 232.072 76.3199 232.606 76.6632L240.413 64.5143C240.257 64.4136 240.143 64.3297 240.064 64.2669L231.033 75.5356ZM230.04 67.3815C229.961 67.541 229.887 67.7005 229.817 67.8595L243.036 73.6746C243.02 73.7109 243.001 73.7515 242.979 73.796L230.04 67.3815ZM229.789 67.9227L228.284 71.4349L241.558 77.1236L243.063 73.6114L229.789 67.9227ZM228.336 71.3161C227.694 72.7446 227.099 74.7999 227.462 77.1728C227.855 79.7451 229.245 81.8483 231.115 83.3029L239.981 71.9035C240.723 72.4801 241.517 73.5485 241.738 74.9918C241.928 76.2359 241.584 77.0682 241.506 77.2423L228.336 71.3161ZM231.033 83.2376C234.481 86.0018 239.321 87.6547 243.898 88.5482C248.661 89.4782 254.054 89.7633 259.219 89.157C264.296 88.5611 269.769 87.0295 274.158 83.7951C278.836 80.3476 282.03 75.0985 282.03 68.2584H267.588C267.588 70.0732 266.941 71.1742 265.59 72.1698C263.95 73.3785 261.208 74.383 257.535 74.8141C253.952 75.2348 250.062 75.0377 246.665 74.3744C243.08 73.6745 240.88 72.6227 240.064 71.9688L231.033 83.2376ZM282.03 68.2584C282.03 66.135 281.727 64.0965 281.1 62.1694L267.367 66.6357C267.485 66.9983 267.588 67.5177 267.588 68.2584H282.03Z" fill="black" mask="url(#path-1-outside-1_131_451)"/>
<path d="M23.066 52.9026V45.8783C23.066 45.1257 23.505 44.6239 24.3203 44.5612C33.477 43.8713 37.9926 45.3138 37.9926 49.3277C37.9926 54.2823 32.4108 54.5959 24.3203 54.2196C23.505 54.1569 23.066 53.6552 23.066 52.9026ZM10.209 63.1254C14.4737 63.3136 18.8012 63.3136 23.066 63.3136C36.2365 63.3136 48.3409 63.1254 48.3409 50.3939C48.3409 45.0629 46.6475 42.4915 43.6998 40.7982C42.9472 40.3592 42.9472 39.9202 43.6371 39.3557C45.6441 37.7251 47.5256 34.6519 47.5256 30.1363C47.4629 19.9134 37.4909 18.8472 23.066 18.7218C18.8012 18.6591 14.4737 18.7845 10.209 18.9727C8.57834 19.0354 7.76302 19.9762 7.76302 21.5441V60.554C7.76302 62.122 8.57834 63.0627 10.209 63.1254ZM23.066 35.8435V28.8192C23.066 28.0666 23.505 27.5649 24.3203 27.5022C33.4143 26.8123 36.7383 28.2548 36.7383 32.2687C36.7383 37.2233 32.2854 37.5369 24.3203 37.0979C23.505 37.0352 23.066 36.5962 23.066 35.8435ZM87.9971 60.4913V55.8503C87.9971 54.2196 87.1191 53.3416 85.4885 53.3416H70.5618C69.7465 53.3416 69.3075 52.9026 69.3075 52.0872V21.6068C69.3075 19.9762 68.4294 19.0981 66.7988 19.0981H56.5132C54.8826 19.0981 54.0045 19.9762 54.0045 21.6068V60.4913C54.0045 62.122 54.8826 63 56.5132 63H85.4885C87.1191 63 87.9971 62.122 87.9971 60.4913ZM93.6289 63H126.806C128.437 63 129.315 62.122 129.315 60.4913V56.6029C129.315 54.9722 128.437 54.0942 126.806 54.0942H107.678C106.862 54.0942 106.423 53.6552 106.423 52.8399V46.5682C106.423 45.7528 106.862 45.3138 107.678 45.3138H121.162C122.792 45.3138 123.67 44.4358 123.67 42.8051V38.9167C123.67 37.286 122.792 36.408 121.162 36.408H107.678C106.862 36.408 106.423 35.969 106.423 35.1537V29.2583C106.423 28.4429 106.862 28.0039 107.678 28.0039H126.806C128.437 28.0039 129.315 27.1259 129.315 25.4952V21.6068C129.315 19.9762 128.437 19.0981 126.806 19.0981H93.6289C91.9983 19.0981 91.1202 19.9762 91.1202 21.6068V60.4913C91.1202 62.122 91.9983 63 93.6289 63ZM166.254 34.4011C166.317 39.8574 162.679 41.2999 153.209 41.0491C151.704 40.9863 150.889 40.4219 150.889 39.6693V29.321C150.889 28.5684 151.328 28.0666 152.143 28.0039C162.617 27.314 166.254 29.76 166.254 34.4011ZM138.094 63H148.38C150.011 63 150.889 62.122 150.889 60.4913V51.2719C150.889 50.4566 151.328 50.0176 152.143 50.0176C153.335 50.0176 154.401 49.9549 155.53 49.9549C156.219 49.8922 156.721 50.2057 157.035 50.7702L163.056 61.2439C163.746 62.4355 164.686 63 166.066 63H174.658C176.602 63 177.355 61.6829 176.414 59.9896L170.08 48.4497C169.704 47.6971 169.892 47.1953 170.644 46.819C174.972 44.6866 177.669 40.61 177.669 34.2756C177.606 20.7288 166.568 18.5964 150.889 18.6591C146.624 18.5964 142.296 18.6591 138.032 18.91C136.401 19.0354 135.586 19.9762 135.586 21.5441V60.4913C135.586 62.122 136.464 63 138.094 63ZM204.752 63.5645C216.857 63.5645 226.954 58.4217 226.954 50.4566V41.5508C226.954 39.9202 226.076 39.0421 224.445 39.0421H206.32C204.689 39.0421 203.811 39.9202 203.811 41.5508V45.4392C203.811 47.0699 204.689 47.9479 206.32 47.9479H212.78C213.595 47.9479 214.16 48.3869 213.972 49.265C213.532 52.0245 211.337 53.906 206.257 53.906C199.609 53.906 194.906 48.9514 194.906 41.0491C194.906 33.962 198.543 27.2513 206.257 27.2513C209.33 27.2513 213.846 28.6938 215.978 33.2094C216.606 34.7146 217.546 35.3418 219.052 34.9655L223.944 33.8366C225.511 33.4603 226.264 32.3941 225.825 30.8889C223.63 22.6103 215.79 18.4709 205.881 18.4709C192.522 18.4709 181.171 25.9343 181.171 40.4846C181.171 56.7283 192.522 63.5645 204.752 63.5645ZM236.427 51.9618L234.921 55.474C234.357 56.7283 234.42 57.9199 235.549 58.798C244.078 65.6341 274.809 66.763 274.809 49.4531C274.809 32.3314 245.771 37.0979 245.771 31.2652C245.771 27.0632 253.548 25.997 264.837 31.3279C266.405 32.0805 267.66 31.6415 268.287 30.1363L269.667 26.7496C270.231 25.3071 269.918 24.1782 268.663 23.3629C256.684 15.7741 231.347 16.464 231.347 32.7077C231.347 51.5228 259.82 44.8121 259.82 51.2719C259.82 56.1638 247.528 55.0349 239.813 50.8956C238.308 50.0803 237.117 50.3939 236.427 51.9618Z" fill="#F4D06F"/>
</svg>
